<?xml version="1.0" encoding="UTF-8" standalone="no"?>
<!-- Created with Inkscape (http://www.inkscape.org/) -->

<svg
   width="14.40046mm"
   height="15.387575mm"
   viewBox="0 0 14.40046 15.387575"
   version="1.1"
   id="svg236"
   xmlns="http://www.w3.org/2000/svg"
   xmlns:svg="http://www.w3.org/2000/svg">
  <defs
     id="defs233" />
  <g
     id="layer1"
     transform="translate(-0.31875742,-0.11439071)">
    <g
       id="use50"
       transform="matrix(0.01543403,0,0,0.01543403,7.5189877,7.7849508)">
      <path
         d="m 30,150 c 5,235 55,250 100,350 H -130 C -85,400 -35,385 -30,150 a 10,10 0 0 0 -20,0 210,210 0 1 1 -74,-201 10,10 0 0 0 14,-14 230,230 0 1 1 220,0 10,10 0 0 0 14,14 210,210 0 1 1 -74,201 10,10 0 0 0 -20,0 z"
         fill="#000000"
         id="path257" />
    </g>
  </g>
</svg>
